<svg width="67" height="24" viewBox="0 0 67 24" fill="none" xmlns="http://www.w3.org/2000/svg">
<g clip-path="url(#clip0_323:87)">
<rect width="1152" height="700" transform="translate(-24 -20)" fill="white"/>
<g filter="url(#filter0_d_323:87)">
<rect x="-24" y="-20" width="1152" height="64" fill="white"/>
</g>
<rect width="24" height="24" rx="4" fill="#3D3D3D"/>
<path d="M7.06219 16.408H7.54219C7.85152 16.408 8.08085 16.36 8.23019 16.264C8.37952 16.1573 8.45419 16.0027 8.45419 15.8V7.016C8.45419 6.80267 8.37952 6.648 8.23019 6.552C8.08085 6.456 7.85152 6.408 7.54219 6.408H7.06219V5.8H12.2782V6.408H11.7982C11.2009 6.408 10.9022 6.61067 10.9022 7.016V15.384C10.9022 15.8853 11.2169 16.136 11.8462 16.136H14.7102C15.1689 16.136 15.5262 15.8747 15.7822 15.352C16.0382 14.8187 16.2035 14.2853 16.2782 13.752H16.9342L16.6142 17H7.06219V16.408Z" fill="white"/>
<path d="M30.64 17.16C29.9573 17.16 29.4027 17.0107 28.976 16.712C28.5493 16.4133 28.336 15.9973 28.336 15.464C28.336 14.6533 28.752 14.0027 29.584 13.512C30.4267 13.0107 31.7013 12.6427 33.408 12.408V11.736C33.408 11.224 33.2533 10.84 32.944 10.584C32.6453 10.328 32.24 10.2 31.728 10.2C31.344 10.2 31.0027 10.2747 30.704 10.424C30.4053 10.5733 30.256 10.728 30.256 10.888C30.256 10.9413 30.2667 11.0267 30.288 11.144C30.32 11.2613 30.336 11.352 30.336 11.416C30.336 11.544 30.2613 11.6773 30.112 11.816C29.9627 11.944 29.7653 12.008 29.52 12.008C29.2213 12.008 28.9973 11.928 28.848 11.768C28.7093 11.5973 28.64 11.384 28.64 11.128C28.64 10.552 28.9653 10.1093 29.616 9.8C30.2773 9.48 31.1467 9.32 32.224 9.32C33.3227 9.32 34.1867 9.54933 34.816 10.008C35.456 10.4667 35.776 11.0747 35.776 11.832V15.832C35.776 16.024 35.808 16.1627 35.872 16.248C35.9467 16.3227 36.0533 16.36 36.192 16.36C36.352 16.36 36.56 16.3173 36.816 16.232V16.648C36.6027 16.808 36.336 16.9307 36.016 17.016C35.696 17.112 35.3653 17.16 35.024 17.16C34.5867 17.16 34.2133 17.0853 33.904 16.936C33.6053 16.776 33.456 16.5253 33.456 16.184V16.024C33.0827 16.44 32.6453 16.7333 32.144 16.904C31.6427 17.0747 31.1413 17.16 30.64 17.16ZM31.808 16.28C32.096 16.28 32.3947 16.184 32.704 15.992C33.024 15.7893 33.2587 15.5493 33.408 15.272V13.064C32.4587 13.32 31.76 13.6507 31.312 14.056C30.8747 14.4507 30.656 14.8613 30.656 15.288C30.656 15.5973 30.7573 15.8427 30.96 16.024C31.1733 16.1947 31.456 16.28 31.808 16.28ZM44.8728 9.32C45.2568 9.32 45.5821 9.39467 45.8488 9.544C46.1261 9.68267 46.2648 9.912 46.2648 10.232C46.2648 10.5307 46.1848 10.7547 46.0248 10.904C45.8754 11.0533 45.6728 11.128 45.4168 11.128C45.2674 11.128 45.1448 11.1013 45.0488 11.048C44.9528 10.9947 44.8621 10.92 44.7768 10.824C44.6701 10.728 44.5794 10.6587 44.5048 10.616C44.4301 10.5733 44.3288 10.552 44.2008 10.552C43.9768 10.552 43.7368 10.6587 43.4808 10.872C43.2354 11.0853 43.0168 11.384 42.8248 11.768C42.6434 12.152 42.5368 12.5947 42.5048 13.096V15.832C42.5048 16.024 42.5794 16.1733 42.7288 16.28C42.8781 16.376 43.0914 16.424 43.3688 16.424H43.7208V17H38.8888V16.424H39.3048C39.5714 16.424 39.7794 16.376 39.9288 16.28C40.0781 16.184 40.1528 16.04 40.1528 15.848V11.16C40.1528 11 40.1101 10.8827 40.0248 10.808C39.9394 10.7333 39.8328 10.696 39.7048 10.696C39.5981 10.696 39.4701 10.728 39.3208 10.792L39.1928 10.296L42.0408 9.368H42.5048V11.128C42.6861 10.552 43.0114 10.1093 43.4808 9.8C43.9501 9.48 44.4141 9.32 44.8728 9.32ZM56.2213 9.32C56.5946 9.32 56.9039 9.40533 57.1493 9.576C57.3946 9.736 57.5173 9.93867 57.5173 10.184C57.5173 10.4187 57.4533 10.6 57.3253 10.728C57.1973 10.856 57.0159 10.92 56.7813 10.92C56.6319 10.92 56.5253 10.8933 56.4613 10.84C56.3973 10.7867 56.3226 10.7013 56.2373 10.584C56.1733 10.4667 56.0986 10.376 56.0133 10.312C55.9386 10.248 55.8159 10.216 55.6453 10.216C55.5279 10.216 55.3573 10.2587 55.1333 10.344C55.4959 10.7707 55.6773 11.288 55.6773 11.896C55.6773 12.7173 55.3626 13.3467 54.7333 13.784C54.1039 14.2107 53.2079 14.424 52.0453 14.424C51.3839 14.424 50.7866 14.3493 50.2533 14.2C50.0186 14.392 49.9013 14.5893 49.9013 14.792C49.9013 14.952 49.9706 15.0853 50.1093 15.192C50.2586 15.288 50.4613 15.336 50.7173 15.336H53.6613C54.4079 15.336 55.0159 15.5013 55.4853 15.832C55.9653 16.152 56.2053 16.6213 56.2053 17.24C56.2053 18.0187 55.8373 18.632 55.1013 19.08C54.3653 19.528 53.3146 19.752 51.9493 19.752C50.7866 19.752 49.8906 19.5867 49.2613 19.256C48.6426 18.9253 48.3333 18.4453 48.3333 17.816C48.3333 17.1973 48.7333 16.76 49.5333 16.504C48.8719 16.2907 48.5413 15.88 48.5413 15.272C48.5413 14.792 48.8773 14.3333 49.5493 13.896C48.7919 13.448 48.4133 12.7813 48.4133 11.896C48.4133 11.0747 48.7279 10.44 49.3573 9.992C49.9973 9.544 50.8933 9.32 52.0453 9.32C53.1119 9.32 53.9546 9.50667 54.5733 9.88C55.0533 9.50667 55.6026 9.32 56.2213 9.32ZM52.0453 13.624C52.4933 13.624 52.8239 13.464 53.0373 13.144C53.2506 12.824 53.3573 12.408 53.3573 11.896C53.3573 11.3733 53.2506 10.952 53.0373 10.632C52.8239 10.312 52.4933 10.152 52.0453 10.152C51.5973 10.152 51.2666 10.312 51.0533 10.632C50.8399 10.952 50.7333 11.3733 50.7333 11.896C50.7333 12.408 50.8399 12.824 51.0533 13.144C51.2666 13.464 51.5973 13.624 52.0453 13.624ZM50.6213 16.84C50.3866 16.936 50.2159 17.08 50.1093 17.272C50.0026 17.464 49.9493 17.6453 49.9493 17.816C49.9493 18.1893 50.1306 18.4773 50.4933 18.68C50.8666 18.8827 51.3679 18.984 51.9973 18.984C52.6693 18.984 53.1919 18.872 53.5653 18.648C53.9493 18.424 54.1413 18.104 54.1413 17.688C54.1413 17.3893 54.0293 17.1707 53.8053 17.032C53.5813 16.904 53.2026 16.84 52.6693 16.84H50.6213ZM61.2715 13V13.256C61.2715 14.184 61.4848 14.9413 61.9115 15.528C62.3382 16.104 62.9248 16.392 63.6715 16.392C65.1222 16.392 65.9808 15.6933 66.2475 14.296H66.8555C66.7702 15.1387 66.4288 15.8267 65.8315 16.36C65.2342 16.8933 64.4022 17.16 63.3355 17.16C61.9062 17.16 60.8075 16.824 60.0395 16.152C59.2715 15.48 58.8875 14.5093 58.8875 13.24C58.8875 12.0453 59.2662 11.096 60.0235 10.392C60.7808 9.67733 61.8315 9.32 63.1755 9.32C64.4022 9.32 65.3302 9.624 65.9595 10.232C66.5888 10.8293 66.9035 11.6027 66.9035 12.552V13H61.2715ZM63.2395 10.136C62.7382 10.136 62.3275 10.3227 62.0075 10.696C61.6875 11.0693 61.4742 11.5653 61.3675 12.184H64.8395C64.8395 11.6827 64.7168 11.2187 64.4715 10.792C64.2262 10.3547 63.8155 10.136 63.2395 10.136Z" fill="#3D3D3D"/>
</g>
<defs>
<filter id="filter0_d_323:87" x="-34" y="-28" width="1172" height="84" filterUnits="userSpaceOnUse" color-interpolation-filters="sRGB">
<feFlood flood-opacity="0" result="BackgroundImageFix"/>
<feColorMatrix in="SourceAlpha" type="matrix" values="0 0 0 0 0 0 0 0 0 0 0 0 0 0 0 0 0 0 127 0" result="hardAlpha"/>
<feOffset dy="2"/>
<feGaussianBlur stdDeviation="5"/>
<feComposite in2="hardAlpha" operator="out"/>
<feColorMatrix type="matrix" values="0 0 0 0 0.25 0 0 0 0 0.25 0 0 0 0 0.25 0 0 0 0.1 0"/>
<feBlend mode="normal" in2="BackgroundImageFix" result="effect1_dropShadow_323:87"/>
<feBlend mode="normal" in="SourceGraphic" in2="effect1_dropShadow_323:87" result="shape"/>
</filter>
<clipPath id="clip0_323:87">
<rect width="1152" height="700" fill="white" transform="translate(-24 -20)"/>
</clipPath>
</defs>
</svg>
